# xmcd CD database file
#
# Track frame offsets:
#	150
#	16562
#	35265
#	61135
#	82757
#	102510
#	125600
#	139947
#	165635
#	183870
#	209217
#	229095
#
# Disc length: 3339 seconds
#
# Revision: 0
# Processed by: cddbd v1.4PL0 Copyright (c) Steve Scherf et al.
# Submitted via: CDex 1.50
#
DISCID=980d090c
DTITLE=Lee Gibson - Nearness of You
DYEAR=1900
DGENRE=Jazz
TTITLE0=Time After Time
TTITLE1=Never let me go
TTITLE2=They can't take that away from me
TTITLE3=Good morning heartache
TTITLE4=Here's that rainy day
TTITLE5=Nice 'n' easy
TTITLE6=The lady is a tramp
TTITLE7=A foggy day
TTITLE8=Please don't talk about me when I'm gone
TTITLE9=The nearness of you
TTITLE10=Teach me tonight
TTITLE11=I only have eyes for you
EXTD=
EXTT0=
EXTT1=
EXTT2=
EXTT3=
EXTT4=
EXTT5=
EXTT6=
EXTT7=
EXTT8=
EXTT9=
EXTT10=
EXTT11=
PLAYORDER=
